<svg width="50" height="50" viewBox="0 0 50 50" fill="none" xmlns="http://www.w3.org/2000/svg">
<circle cx="25" cy="25" r="25" fill="#8D45B9"/>
<path fill-rule="evenodd" clip-rule="evenodd" d="M34.7076 30.5685C34.7732 30.6709 34.8651 30.8494 34.9044 30.9651C34.9898 31.2031 35.0259 31.5765 34.9799 31.7913C34.9143 32.1052 34.6813 32.4985 34.0512 33.3512C33.6706 33.8634 32.988 34.5673 32.7124 34.7326C32.0594 35.1159 31.5048 35.0928 30.2284 34.6268C28.0396 33.827 25.9296 32.6571 23.8952 31.1204C20 28.1791 17.1649 24.4745 15.2649 19.8345C15.0221 19.243 14.9827 19.0513 15.0057 18.5886C15.0319 18.0268 15.2058 17.6005 15.6586 16.9991C16.1607 16.3348 17.3355 15.383 17.9622 15.1385C18.5562 14.9071 19.0943 14.9666 19.5144 15.3103C19.7474 15.5053 20.9156 16.9462 21.3848 17.6203C21.7392 18.1326 22.2281 18.9257 22.4152 19.2893C22.658 19.7684 22.7007 20.2443 22.5432 20.7103C22.4185 21.0772 22.3102 21.1994 21.6407 21.7348C21.2995 22.0124 20.991 22.2669 20.9615 22.2999C20.932 22.3363 20.8664 22.4519 20.8171 22.561C20.617 22.9939 20.7384 23.5855 21.2175 24.5538C21.5883 25.3073 22.0575 25.9749 22.7466 26.7316C23.3308 27.3761 24.092 28.0271 24.686 28.3906C25.4506 28.8599 26.4448 29.2168 26.9929 29.2202C27.2291 29.2202 27.5638 29.1243 27.7345 29.0053C27.8034 28.9591 28.0626 28.6649 28.3153 28.351C28.942 27.5677 29.1389 27.3926 29.513 27.2868C29.8609 27.1844 30.3301 27.2935 30.9634 27.6206C32.0726 28.1924 34.2941 29.9406 34.7076 30.5685ZM32.6727 22.7655C32.5528 20.7043 31.7466 19.046 30.3038 17.8792C29.4908 17.2236 28.5082 16.7728 27.4311 16.5536C27.0365 16.4751 26.31 16.4116 26.1854 16.4479C26.0678 16.4816 25.9015 16.6089 25.8273 16.7241C25.7489 16.849 25.7313 17.1278 25.7981 17.2891C25.9061 17.5587 26.1069 17.6539 26.6693 17.7031C27.5363 17.779 28.4306 18.0836 29.1063 18.5346C29.8777 19.048 30.4909 19.7503 30.8876 20.5755C31.2303 21.2846 31.4411 22.3064 31.4353 23.2214C31.4333 23.5524 31.4845 23.7392 31.6175 23.8759C31.8184 24.086 32.1113 24.1319 32.3697 23.9924C32.6561 23.8418 32.7231 23.5774 32.6727 22.7655ZM30.2964 22.0064C30.2135 21.3336 30.0068 20.8054 29.6395 20.3375C29.1627 19.7349 28.5533 19.3741 27.6511 19.1601C27.0632 19.0175 26.8256 19.0338 26.613 19.2281C26.4149 19.4101 26.3762 19.7749 26.5276 20.0111C26.6341 20.1826 26.7569 20.244 27.0984 20.3111C27.5532 20.3948 27.8676 20.5034 28.1535 20.6669C28.7604 21.0173 29.043 21.5656 29.0733 22.4534C29.0874 22.8702 29.1234 22.9984 29.269 23.1462C29.5388 23.4165 30.0191 23.3639 30.2228 23.0405C30.2975 22.9186 30.3089 22.8656 30.3168 22.5825C30.322 22.4073 30.3145 22.1465 30.2964 22.0064Z" fill="white"/>
</svg>
