<svg width="50" height="50" viewBox="0 0 50 50" fill="none" xmlns="http://www.w3.org/2000/svg">
<circle cx="25" cy="25" r="25" fill="#3F8AE0"/>
<path fill-rule="evenodd" clip-rule="evenodd" d="M26.0789 30.954C26.0789 30.954 26.476 30.9154 26.6793 30.7239C26.8655 30.5485 26.859 30.2175 26.859 30.2175C26.859 30.2175 26.8343 28.6718 27.6531 28.4436C28.4601 28.2192 29.4964 29.9384 30.5961 30.5994C31.4267 31.0993 32.0573 30.9899 32.0573 30.9899L34.9959 30.954C34.9959 30.954 36.5325 30.871 35.804 29.812C35.7437 29.7252 35.379 29.0283 33.6197 27.5968C31.7764 26.0982 32.0239 26.3406 34.2427 23.7482C35.5942 22.1695 36.1343 21.2057 35.9654 20.7936C35.8051 20.3994 34.8108 20.5041 34.8108 20.5041L31.5031 20.522C31.5031 20.522 31.2578 20.4927 31.076 20.588C30.8984 20.6814 30.7833 20.8992 30.7833 20.8992C30.7833 20.8992 30.2603 22.1205 29.562 23.1597C28.0889 25.3514 27.5003 25.4673 27.2593 25.3315C26.6987 25.0137 26.8386 24.0565 26.8386 23.3766C26.8386 21.2519 27.2066 20.3664 26.123 20.1372C25.7636 20.0608 25.4989 20.0108 24.5789 20.0024C23.3985 19.992 22.4 20.0061 21.834 20.2485C21.4574 20.4098 21.1669 20.77 21.3444 20.7908C21.5629 20.8162 22.0578 20.9077 22.3204 21.2208C22.6593 21.6254 22.6475 22.5326 22.6475 22.5326C22.6475 22.5326 22.8422 25.0335 22.1923 25.3438C21.7469 25.5569 21.1357 25.1222 19.8219 23.1333C19.1493 22.1148 18.6415 20.9888 18.6415 20.9888C18.6415 20.9888 18.5435 20.7785 18.3681 20.6653C18.1562 20.5286 17.8603 20.4861 17.8603 20.4861L14.7172 20.5041C14.7172 20.5041 14.2448 20.5154 14.0716 20.6955C13.9177 20.8549 14.0598 21.1859 14.0598 21.1859C14.0598 21.1859 16.5206 26.2322 19.3075 28.7756C21.8631 31.1068 24.764 30.954 24.764 30.954H26.0789Z" fill="white"/>
</svg>
