<svg width="50" height="50" viewBox="0 0 50 50" fill="none" xmlns="http://www.w3.org/2000/svg">
<circle cx="25" cy="25" r="25" fill="#00D15D"/>
<path fill-rule="evenodd" clip-rule="evenodd" d="M25.0419 34.8281H25.0377C23.3711 34.8276 21.7335 34.4114 20.279 33.6218L15 35L16.4127 29.8645C15.5413 28.3615 15.0827 26.6566 15.0835 24.9099C15.0857 19.4456 19.5529 15 25.0418 15C27.7057 15.0011 30.206 16.0332 32.0861 17.9065C33.9662 19.7797 35.0011 22.2697 35 24.9177C34.9978 30.3807 30.5323 34.8259 25.0419 34.8281ZM20.524 31.8277L20.8262 32.0063C22.097 32.7568 23.5537 33.1539 25.0389 33.1544H25.0423C29.6042 33.1544 33.3172 29.4592 33.319 24.9172C33.3199 22.7162 32.4598 20.6466 30.8971 19.0896C29.3344 17.5326 27.2563 16.6747 25.0456 16.674C20.4801 16.674 16.7671 20.3689 16.7652 24.9105C16.7646 26.467 17.2022 27.9828 18.0307 29.2942L18.2275 29.6059L17.3914 32.6456L20.524 31.8277ZM30.0588 27.2744C29.9966 27.1711 29.8308 27.1091 29.5819 26.9851C29.3331 26.8612 28.1098 26.2622 27.8817 26.1794C27.6536 26.0968 27.4877 26.0556 27.3219 26.3034C27.156 26.5513 26.6791 27.1091 26.534 27.2744C26.3888 27.4396 26.2437 27.4603 25.995 27.3363C25.7461 27.2124 24.9444 26.9509 23.994 26.1072C23.2543 25.4506 22.7549 24.6397 22.6098 24.3918C22.4646 24.1439 22.5943 24.0099 22.7189 23.8864C22.8308 23.7754 22.9677 23.5971 23.0921 23.4526C23.2165 23.308 23.258 23.2047 23.3409 23.0395C23.4238 22.8742 23.3824 22.7296 23.3202 22.6057C23.258 22.4817 22.7603 21.2628 22.553 20.767C22.351 20.2841 22.1459 20.3495 21.9932 20.3419C21.8482 20.3347 21.6821 20.3331 21.5163 20.3331C21.3504 20.3331 21.0808 20.3951 20.8528 20.643C20.6247 20.8909 19.9819 21.49 19.9819 22.7088C19.9819 23.9277 20.8735 25.1052 20.9979 25.2705C21.1223 25.4358 22.7524 27.937 25.2485 29.0096C25.8421 29.2648 26.3056 29.4171 26.667 29.5312C27.263 29.7198 27.8055 29.6932 28.2342 29.6294C28.7123 29.5583 29.7063 29.0304 29.9137 28.4519C30.121 27.8734 30.121 27.3776 30.0588 27.2744Z" fill="white"/>
</svg>
