<svg width="121" height="32" viewBox="0 0 121 32" fill="none" xmlns="http://www.w3.org/2000/svg">
<path d="M13.0382 18.9074C13.0382 14.7593 10.3338 12.5276 6.91644 12.5276C3.47449 12.5276 0.794678 14.7593 0.794678 18.9074C0.794678 23.0313 3.47449 25.2873 6.91644 25.2873C10.3338 25.2873 13.0382 23.0555 13.0382 18.9074ZM9.52249 18.9074C9.52249 21.1392 8.61283 22.3521 6.91644 22.3521C5.22005 22.3521 4.31039 21.1392 4.31039 18.9074C4.31039 16.6757 5.22005 15.4628 6.91644 15.4628C8.61283 15.4628 9.52249 16.6757 9.52249 18.9074Z" fill="black"/>
<path d="M23.3364 12.4306C22.8631 12.7095 22.0456 12.7035 20.9516 12.6974C20.8041 12.6974 20.6443 12.6974 20.4844 12.6974C16.6737 12.6974 14.6331 14.7957 14.6331 19.5139V20.1203C14.6331 23.4679 16.4524 25.2873 19.5256 25.2873C22.5988 25.2873 24.4181 23.474 24.4181 20.6783C24.4181 18.0948 22.8569 16.4089 20.3123 16.4089C18.6528 16.4089 17.7555 17.1366 17.2392 18.2525H17.1654C17.4113 16.045 18.2718 15.3415 20.6074 15.3415C22.6725 15.3415 23.4101 15.196 24.1723 14.6623L23.3364 12.4306ZM19.5502 22.813C18.6405 22.813 18.0997 22.0852 18.0997 20.8238C18.0997 19.5381 18.6405 18.8104 19.5502 18.8104C20.4107 18.8104 20.9516 19.5381 20.9516 20.8238C20.9516 22.0852 20.4107 22.813 19.5502 22.813Z" fill="black"/>
<path d="M26.1068 28.6106H29.4995V23.5892H29.5487C29.9421 24.5353 30.8517 25.2388 32.1793 25.2388C34.1954 25.2388 35.8917 23.6863 35.8917 20.4599C35.8917 17.0881 34.0724 15.6811 32.2039 15.6811C30.8026 15.6811 29.9175 16.4816 29.5487 17.4277H29.475V15.8024H26.1068V28.6106ZM29.4258 20.4599C29.4258 19.0772 29.9912 18.2525 30.9255 18.2525C31.8597 18.2525 32.4006 19.0772 32.4006 20.4599C32.4006 21.8426 31.8597 22.6674 30.9255 22.6674C29.9912 22.6674 29.4258 21.8184 29.4258 20.4599Z" fill="black"/>
<path d="M40.2033 25.263C41.4326 25.263 42.3607 24.8506 42.9323 23.8075H43.0061V25.1175H46.1776V18.7376C46.1776 17.0153 44.5242 15.6811 41.826 15.6811C39.0048 15.6811 37.6157 17.1366 37.499 18.8347H40.6213C40.7012 18.2585 41.1314 17.9856 41.7768 17.9856C42.3669 17.9856 42.7848 18.2525 42.7848 18.7376V18.7619C42.7848 19.3016 42.1825 19.4714 40.5967 19.5867C38.6483 19.7261 37.1302 20.5024 37.1302 22.5461C37.1302 24.4019 38.3963 25.263 40.2033 25.263ZM41.3097 23.1526C40.7319 23.1526 40.3263 22.8736 40.3263 22.3521C40.3263 21.873 40.6705 21.503 41.4572 21.3817C41.9981 21.2968 42.4529 21.1877 42.8094 21.0421V21.8184C42.8094 22.6674 42.078 23.1526 41.3097 23.1526Z" fill="black"/>
<path d="M47.6404 22.3035C47.7141 24.323 49.5027 25.2873 51.9428 25.2873C54.4382 25.2873 56.2207 24.2988 56.2207 22.5461C56.2207 21.1574 55.1205 20.4296 53.9096 20.3629V20.2659C55.268 19.9748 55.9748 19.2713 55.9748 18.3252C55.9748 16.6029 54.4505 15.6811 51.9182 15.6811C49.7055 15.6811 47.9108 16.7242 47.9108 18.5193H51.1069C51.1069 18.1191 51.5064 17.8401 52.0657 17.8401C52.6251 17.8401 53.0246 18.1797 53.0246 18.6649C53.0246 19.0894 52.6189 19.3926 52.0412 19.3926H50.8611V21.3575H52.0412C52.6312 21.3575 53.0492 21.7092 53.0492 22.2065C53.0492 22.7341 52.5882 23.1041 51.9428 23.1041C51.2974 23.1041 50.8365 22.7705 50.8365 22.3035H47.6404Z" fill="black"/>
<path d="M62.3485 25.2873C65.4217 25.2873 67.241 23.3466 67.241 20.4842C67.241 17.6218 65.4217 15.6811 62.3485 15.6811C59.2753 15.6811 57.456 17.6218 57.456 20.4842C57.456 23.3466 59.2753 25.2873 62.3485 25.2873ZM62.3731 22.813C61.4634 22.813 60.9226 21.9215 60.9226 20.4599C60.9226 18.9984 61.4634 18.1069 62.3731 18.1069C63.2336 18.1069 63.7745 18.9984 63.7745 20.4599C63.7745 21.9215 63.2336 22.813 62.3731 22.813Z" fill="black"/>
<path d="M68.8774 25.1175H73.647C76.3022 25.1175 77.7282 24.2442 77.7282 22.5461C77.7282 21.4788 76.8431 20.3872 74.7042 20.2901C76.253 20.0476 77.0889 19.2713 77.0889 18.3495C77.0889 16.6514 75.5401 15.8024 73.0078 15.8024H68.8774V25.1175ZM72.0244 22.7644V21.2847H73.647C74.194 21.2847 74.5321 21.5697 74.5321 22.0367C74.5321 22.4915 74.194 22.7644 73.647 22.7644H72.0244ZM72.0244 19.5867V18.2282H73.0078C73.5855 18.2282 73.942 18.4829 73.942 18.9074C73.942 19.3319 73.6285 19.5867 73.1061 19.5867H72.0244Z" fill="black"/>
<path d="M81.9261 25.263C83.1553 25.263 84.0834 24.8506 84.655 23.8075H84.7288V25.1175H87.9003V18.7376C87.9003 17.0153 86.2469 15.6811 83.5487 15.6811C80.7275 15.6811 79.3384 17.1366 79.2217 18.8347H82.344C82.4239 18.2585 82.8541 17.9856 83.4995 17.9856C84.0896 17.9856 84.5075 18.2525 84.5075 18.7376V18.7619C84.5075 19.3016 83.9052 19.4714 82.3194 19.5867C80.371 19.7261 78.8529 20.5024 78.8529 22.5461C78.8529 24.4019 80.119 25.263 81.9261 25.263ZM83.0324 23.1526C82.4546 23.1526 82.049 22.8736 82.049 22.3521C82.049 21.873 82.3932 21.503 83.1799 21.3817C83.7208 21.2968 84.1756 21.1877 84.5321 21.0421V21.8184C84.5321 22.6674 83.8007 23.1526 83.0324 23.1526Z" fill="black"/>
<path d="M84.2493 14.638H86.4866L88.3305 11.9211H85.4294L84.2493 14.638Z" fill="black"/>
<path d="M93.2367 15.8024H90.0406V25.1175H93.2367V21.6728H95.5969V25.1175H98.7685V15.8024H95.5969V19.1743H93.2367V15.8024Z" fill="black"/>
<path d="M103.841 20.8481V15.8024H100.645V25.1175H103.841L106.471 20.0476V25.1175H109.667V15.8024H106.471L103.841 20.8481Z" fill="black"/>
<path d="M116.178 25.2873C118.796 25.2873 120.48 24.0501 120.8 22.1095H117.702C117.505 22.6371 116.946 22.9343 116.252 22.9343C115.244 22.9343 114.654 22.2793 114.654 21.3817V21.2362H120.8V20.4599C120.8 17.4944 118.956 15.6811 116.104 15.6811C113.178 15.6811 111.31 17.5975 111.31 20.4842C111.31 23.4983 113.154 25.2873 116.178 25.2873ZM114.654 19.3926C114.672 18.586 115.348 18.0341 116.178 18.0341C117.02 18.0341 117.659 18.5921 117.678 19.3926H114.654Z" fill="black"/>
<path d="M94.4192 9.53685C95.752 9.53685 96.649 8.59977 96.649 7.18822C96.649 5.76481 95.752 4.82774 94.4192 4.82774C93.0865 4.82774 92.1895 5.76481 92.1895 7.18822C92.1895 8.59977 93.0865 9.53685 94.4192 9.53685ZM94.4192 8.90818C93.4069 8.90818 92.9455 8.10158 92.9455 7.18822C92.9455 6.27487 93.4069 5.45641 94.4192 5.45641C95.4316 5.45641 95.8929 6.27487 95.8929 7.18822C95.8929 8.10158 95.4316 8.90818 94.4192 8.90818Z" fill="#787878"/>
<path d="M99.3712 6.70189C99.3712 5.90716 99.903 5.45641 100.627 5.45641C101.329 5.45641 101.755 5.88047 101.755 6.59514V9.44196H102.511V6.54769C102.511 5.38524 101.841 4.82774 100.845 4.82774C100.102 4.82774 99.6403 5.13614 99.4096 5.59875H99.3455V4.88705H98.6151V9.44196H99.3712V6.70189Z" fill="#787878"/>
<path d="M105.46 3.36874H104.704V9.44196H105.46V3.36874Z" fill="#787878"/>
<path d="M107.657 9.44196H108.413V4.88705H107.657V9.44196ZM108.042 4.12789C108.336 4.12789 108.58 3.91438 108.58 3.65342C108.58 3.39247 108.336 3.17896 108.042 3.17896C107.747 3.17896 107.503 3.39247 107.503 3.65342C107.503 3.91438 107.747 4.12789 108.042 4.12789Z" fill="#787878"/>
<path d="M111.366 6.70189C111.366 5.90716 111.898 5.45641 112.622 5.45641C113.324 5.45641 113.75 5.88047 113.75 6.59514V9.44196H114.506V6.54769C114.506 5.38524 113.836 4.82774 112.84 4.82774C112.097 4.82774 111.635 5.13614 111.405 5.59875H111.34V4.88705H110.61V9.44196H111.366V6.70189Z" fill="#787878"/>
<path d="M118.762 9.53685C119.762 9.53685 120.492 9.07424 120.723 8.38626L119.993 8.19647C119.8 8.67094 119.355 8.90818 118.762 8.90818C117.875 8.90818 117.263 8.37736 117.228 7.40174H120.8V7.10519C120.8 5.40896 119.711 4.82774 118.686 4.82774C117.353 4.82774 116.469 5.8004 116.469 7.20009C116.469 8.59977 117.34 9.53685 118.762 9.53685ZM117.228 6.79679C117.279 6.08805 117.821 5.45641 118.686 5.45641C119.506 5.45641 120.031 6.02577 120.031 6.79679H117.228Z" fill="#787878"/>
</svg>
