<svg width="40" height="40" viewBox="0 0 40 40" fill="none" xmlns="http://www.w3.org/2000/svg">
<circle cx="20" cy="20" r="20" fill="#F2F2F2"/>
<path d="M25.0556 13.5186C25.0001 14.3427 24.8612 15.1482 24.639 15.9167L25.7501 17.0279C26.1297 15.9167 26.3704 14.7408 26.4538 13.5186H25.0556ZM15.926 24.6482C15.139 24.8705 14.3334 25.0093 13.5186 25.0649V26.4445C14.7408 26.3612 15.9167 26.1204 17.0371 25.7501L15.926 24.6482ZM24.1667 11.6667H27.4075C27.9167 11.6667 28.3334 12.0834 28.3334 12.5927C28.3334 21.2871 21.2871 28.3334 12.5927 28.3334C12.0834 28.3334 11.6667 27.9167 11.6667 27.4075V24.176C11.6667 23.6667 12.0834 23.2501 12.5927 23.2501C13.7408 23.2501 14.8612 23.0649 15.8982 22.7223C15.9908 22.6853 16.0927 22.676 16.1853 22.676C16.426 22.676 16.6575 22.7686 16.8427 22.9445L18.8797 24.9816C21.5001 23.639 23.6482 21.5001 24.9816 18.8797L22.9445 16.8427C22.6853 16.5834 22.6112 16.2223 22.713 15.8982C23.0556 14.8612 23.2408 13.7501 23.2408 12.5927C23.2408 12.0834 23.6575 11.6667 24.1667 11.6667Z" fill="#252525"/>
</svg>
