<svg width="11" height="10" viewBox="0 0 11 10" fill="none" xmlns="http://www.w3.org/2000/svg">
<path d="M9.05174 5.00041C9.05032 5.94186 8.67569 6.84435 8.00995 7.51005C7.34422 8.17576 6.4417 8.55038 5.50021 8.5518C4.55861 8.55049 3.65594 8.17593 2.99005 7.51023C2.32416 6.84452 1.94937 5.94197 1.94784 5.00041C1.94905 4.05868 2.3237 3.15586 2.98964 2.48995C3.65557 1.82404 4.55843 1.4494 5.50021 1.4482C6.29178 1.4482 7.01674 1.70887 7.60638 2.14581L6.86902 2.88398L10.3572 3.81744L9.42208 0.330603L8.64003 1.11263C7.75216 0.392371 6.6435 -0.000493135 5.50021 4.64556e-07C2.73859 0.00124178 0.500828 2.2385 0.5 5.00041C0.500828 7.76233 2.73859 10 5.50021 10C8.26182 10 10.5 7.76233 10.5 5.00041H9.05174Z" fill="black"/>
</svg>
